[mov,mp4,m4a,3gp,3g2,mj2 @ 0x4818e80] Auto-inserting h264_mp4toannexb bitstream filter
Input #0, concat, from '/home/wvtohls/video/AMC/playlist.txt':
  Duration: N/A, start: 0.000000, bitrate: 6236 kb/s
    Stream #0:0(und): Video: h264 (Main) (avc1 / 0x31637661), yuv420p(tv), 1920x1080 [SAR 1:1 DAR 16:9], 6111 kb/s, 25 fps, 25 tbr, 90k tbn, 50 tbc
    Metadata:
      handler_name    : VideoHandler
    Stream #0:1(spa): Audio: aac (LC) (mp4a / 0x6134706D), 48000 Hz, stereo, fltp, 125 kb/s
    Metadata:
      handler_name    : SoundHandler
[segment @ 0x4845d40] Opening '/home/wvtohls/hls/AMC/hls/segment0.ts' for writing
Output #0, segment, to '/home/wvtohls/hls/AMC/hls/segment%d.ts':
  Metadata:
    service_provider: cimbor
    encoder         : Lavf58.22.100
    Stream #0:0(und): Video: h264 (Main) (avc1 / 0x31637661), yuv420p(tv), 1920x1080 [SAR 1:1 DAR 16:9], q=2-31, 6111 kb/s, 25 fps, 25 tbr, 90k tbn, 25 tbc
    Metadata:
      handler_name    : VideoHandler
    Stream #0:1(spa): Audio: aac (LC) (mp4a / 0x6134706D), 48000 Hz, stereo, fltp, 125 kb/s
    Metadata:
      handler_name    : SoundHandler
Stream mapping:
  Stream #0:0 -> #0:0 (copy)
  Stream #0:1 -> #0:1 (copy)
frame=   14 fps=0.0 q=-1.0 size=N/A time=00:00:00.51 bitrate=N/A speed=1.01x    frame=   27 fps= 27 q=-1.0 size=N/A time=00:00:01.02 bitrate=N/A speed=1.01x    frame=   40 fps= 26 q=-1.0 size=N/A time=00:00:01.52 bitrate=N/A speed=0.999x    frame=   53 fps= 26 q=-1.0 size=N/A time=00:00:02.04 bitrate=N/A speed=   1x    frame=   66 fps= 26 q=-1.0 size=N/A time=00:00:02.56 bitrate=N/A speed=1.01x    frame=   78 fps= 26 q=-1.0 size=N/A time=00:00:03.05 bitrate=N/A speed=   1x    frame=   91 fps= 26 q=-1.0 size=N/A time=00:00:03.56 bitrate=N/A speed=   1x    frame=  103 fps= 25 q=-1.0 size=N/A time=00:00:04.07 bitrate=N/A speed=   1x    frame=  116 fps= 25 q=-1.0 size=N/A time=00:00:04.58 bitrate=N/A speed=   1x    frame=  129 fps= 25 q=-1.0 size=N/A time=00:00:05.08 bitrate=N/A speed=   1x    frame=  141 fps= 25 q=-1.0 size=N/A time=00:00:05.58 bitrate=N/A speed=   1x    [mov,mp4,m4a,3gp,3g2,mj2 @ 0x481f940] Auto-inserting h264_mp4toannexb bitstream filter
[segment @ 0x4845d40] Opening '/home/wvtohls/hls/AMC/hls/playlist.m3u8.tmp' for writing
[segment @ 0x4845d40] Opening '/home/wvtohls/hls/AMC/hls/segment1.ts' for writing
frame=  154 fps= 25 q=-1.0 size=N/A time=00:00:06.08 bitrate=N/A speed=0.999x    frame=  167 fps= 25 q=-1.0 size=N/A time=00:00:06.60 bitrate=N/A speed=   1x    frame=  179 fps= 25 q=-1.0 size=N/A time=00:00:07.10 bitrate=N/A speed=   1x    frame=  192 fps= 25 q=-1.0 size=N/A time=00:00:07.62 bitrate=N/A speed=   1x    frame=  205 fps= 25 q=-1.0 size=N/A time=00:00:08.12 bitrate=N/A speed=   1x    frame=  218 fps= 25 q=-1.0 size=N/A time=00:00:08.64 bitrate=N/A speed=   1x    frame=  230 fps= 25 q=-1.0 size=N/A time=00:00:09.15 bitrate=N/A speed=   1x    frame=  243 fps= 25 q=-1.0 size=N/A time=00:00:09.64 bitrate=N/A speed=   1x    frame=  256 fps= 25 q=-1.0 size=N/A time=00:00:10.16 bitrate=N/A speed=   1x    frame=  268 fps= 25 q=-1.0 size=N/A time=00:00:10.67 bitrate=N/A speed=   1x    frame=  281 fps= 25 q=-1.0 size=N/A time=00:00:11.16 bitrate=N/A speed=   1x    frame=  293 fps= 25 q=-1.0 size=N/A time=00:00:11.67 bitrate=N/A speed=   1x    [mov,mp4,m4a,3gp,3g2,mj2 @ 0x481f940] Auto-inserting h264_mp4toannexb bitstream filter
[segment @ 0x4845d40] Opening '/home/wvtohls/hls/AMC/hls/playlist.m3u8.tmp' for writing
[segment @ 0x4845d40] Opening '/home/wvtohls/hls/AMC/hls/segment2.ts' for writing
frame=  303 fps= 25 q=-1.0 size=N/A time=00:00:12.18 bitrate=N/A speed=   1x    frame=  315 fps= 25 q=-1.0 size=N/A time=00:00:12.69 bitrate=N/A speed=   1x    frame=  328 fps= 25 q=-1.0 size=N/A time=00:00:13.21 bitrate=N/A speed=   1x    frame=  341 fps= 25 q=-1.0 size=N/A time=00:00:13.70 bitrate=N/A speed=   1x    frame=  354 fps= 25 q=-1.0 size=N/A time=00:00:14.22 bitrate=N/A speed=   1x    frame=  366 fps= 25 q=-1.0 size=N/A time=00:00:14.72 bitrate=N/A speed=   1x    frame=  379 fps= 25 q=-1.0 size=N/A time=00:00:15.23 bitrate=N/A speed=   1x    frame=  392 fps= 25 q=-1.0 size=N/A time=00:00:15.74 bitrate=N/A speed=   1x    frame=  404 fps= 25 q=-1.0 size=N/A time=00:00:16.26 bitrate=N/A speed=   1x    frame=  417 fps= 25 q=-1.0 size=N/A time=00:00:16.75 bitrate=N/A speed=   1x    frame=  430 fps= 25 q=-1.0 size=N/A time=00:00:17.26 bitrate=N/A speed=   1x    frame=  442 fps= 25 q=-1.0 size=N/A time=00:00:17.77 bitrate=N/A speed=   1x    [mov,mp4,m4a,3gp,3g2,mj2 @ 0x48192c0] Auto-inserting h264_mp4toannexb bitstream filter
[segment @ 0x4845d40] Opening '/home/wvtohls/hls/AMC/hls/playlist.m3u8.tmp' for writing
[segment @ 0x4845d40] Opening '/home/wvtohls/hls/AMC/hls/segment3.ts' for writing
frame=  455 fps= 25 q=-1.0 size=N/A time=00:00:18.27 bitrate=N/A speed=   1x    frame=  468 fps= 25 q=-1.0 size=N/A time=00:00:18.78 bitrate=N/A speed=   1x    frame=  480 fps= 25 q=-1.0 size=N/A time=00:00:19.29 bitrate=N/A speed=   1x    frame=  493 fps= 25 q=-1.0 size=N/A time=00:00:19.80 bitrate=N/A speed=   1x    frame=  506 fps= 25 q=-1.0 size=N/A time=00:00:20.30 bitrate=N/A speed=   1x    frame=  519 fps= 25 q=-1.0 size=N/A time=00:00:20.82 bitrate=N/A speed=   1x    frame=  531 fps= 25 q=-1.0 size=N/A time=00:00:21.32 bitrate=N/A speed=   1x    frame=  544 fps= 25 q=-1.0 size=N/A time=00:00:21.83 bitrate=N/A speed=   1x    frame=  557 fps= 25 q=-1.0 size=N/A time=00:00:22.34 bitrate=N/A speed=   1x    frame=  569 fps= 25 q=-1.0 size=N/A time=00:00:22.85 bitrate=N/A speed=   1x    frame=  582 fps= 25 q=-1.0 size=N/A time=00:00:23.34 bitrate=N/A speed=   1x    frame=  594 fps= 25 q=-1.0 size=N/A time=00:00:23.86 bitrate=N/A speed=   1x    [mov,mp4,m4a,3gp,3g2,mj2 @ 0x48192c0] Auto-inserting h264_mp4toannexb bitstream filter
[segment @ 0x4845d40] Opening '/home/wvtohls/hls/AMC/hls/playlist.m3u8.tmp' for writing
[segment @ 0x4845d40] Opening '/home/wvtohls/hls/AMC/hls/segment4.ts' for writing
frame=  607 fps= 25 q=-1.0 size=N/A time=00:00:24.37 bitrate=N/A speed=   1x    frame=  620 fps= 25 q=-1.0 size=N/A time=00:00:24.89 bitrate=N/A speed=   1x    frame=  633 fps= 25 q=-1.0 size=N/A time=00:00:25.38 bitrate=N/A speed=   1x    frame=  645 fps= 25 q=-1.0 size=N/A time=00:00:25.89 bitrate=N/A speed=   1x    frame=  658 fps= 25 q=-1.0 size=N/A time=00:00:26.40 bitrate=N/A speed=   1x    frame=  671 fps= 25 q=-1.0 size=N/A time=00:00:26.91 bitrate=N/A speed=   1x    frame=  684 fps= 25 q=-1.0 size=N/A time=00:00:27.42 bitrate=N/A speed=   1x    frame=  696 fps= 25 q=-1.0 size=N/A time=00:00:27.94 bitrate=N/A speed=   1x    frame=  709 fps= 25 q=-1.0 size=N/A time=00:00:28.43 bitrate=N/A speed=   1x    frame=  722 fps= 25 q=-1.0 size=N/A time=00:00:28.94 bitrate=N/A speed=   1x    frame=  734 fps= 25 q=-1.0 size=N/A time=00:00:29.45 bitrate=N/A speed=   1x    frame=  747 fps= 25 q=-1.0 size=N/A time=00:00:29.94 bitrate=N/A speed=   1x    [mov,mp4,m4a,3gp,3g2,mj2 @ 0x4820200] Auto-inserting h264_mp4toannexb bitstream filter
[segment @ 0x4845d40] Opening '/home/wvtohls/hls/AMC/hls/playlist.m3u8.tmp' for writing
[segment @ 0x4845d40] Opening '/home/wvtohls/hls/AMC/hls/segment5.ts' for writing
frame=  760 fps= 25 q=-1.0 size=N/A time=00:00:30.46 bitrate=N/A speed=   1x    frame=  772 fps= 25 q=-1.0 size=N/A time=00:00:30.97 bitrate=N/A speed=   1x    frame=  785 fps= 25 q=-1.0 size=N/A time=00:00:31.48 bitrate=N/A speed=   1x    frame=  798 fps= 25 q=-1.0 size=N/A time=00:00:31.98 bitrate=N/A speed=   1x    frame=  811 fps= 25 q=-1.0 size=N/A time=00:00:32.50 bitrate=N/A speed=   1x    frame=  823 fps= 25 q=-1.0 size=N/A time=00:00:33.00 bitrate=N/A speed=   1x    frame=  836 fps= 25 q=-1.0 size=N/A time=00:00:33.51 bitrate=N/A speed=   1x    frame=  849 fps= 25 q=-1.0 size=N/A time=00:00:34.02 bitrate=N/A speed=   1x    frame=  861 fps= 25 q=-1.0 size=N/A time=00:00:34.53 bitrate=N/A speed=   1x    frame=  874 fps= 25 q=-1.0 size=N/A time=00:00:35.02 bitrate=N/A speed=   1x    frame=  886 fps= 25 q=-1.0 size=N/A time=00:00:35.54 bitrate=N/A speed=   1x    frame=  899 fps= 25 q=-1.0 size=N/A time=00:00:36.05 bitrate=N/A speed=   1x    [mov,mp4,m4a,3gp,3g2,mj2 @ 0x4820200] Auto-inserting h264_mp4toannexb bitstream filter
[segment @ 0x4845d40] Opening '/home/wvtohls/hls/AMC/hls/playlist.m3u8.tmp' for writing
[segment @ 0x4845d40] Opening '/home/wvtohls/hls/AMC/hls/segment6.ts' for writing
frame=  908 fps= 25 q=-1.0 size=N/A time=00:00:36.56 bitrate=N/A speed=   1x    frame=  921 fps= 25 q=-1.0 size=N/A time=00:00:37.05 bitrate=N/A speed=   1x    frame=  934 fps= 25 q=-1.0 size=N/A time=00:00:37.56 bitrate=N/A speed=   1x    frame=  946 fps= 25 q=-1.0 size=N/A time=00:00:38.08 bitrate=N/A speed=   1x    frame=  959 fps= 25 q=-1.0 size=N/A time=00:00:38.57 bitrate=N/A speed=   1x    frame=  972 fps= 25 q=-1.0 size=N/A time=00:00:39.08 bitrate=N/A speed=   1x    frame=  984 fps= 25 q=-1.0 size=N/A time=00:00:39.59 bitrate=N/A speed=   1x    frame=  997 fps= 25 q=-1.0 size=N/A time=00:00:40.10 bitrate=N/A speed=   1x    frame= 1010 fps= 25 q=-1.0 size=N/A time=00:00:40.61 bitrate=N/A speed=   1x    frame= 1023 fps= 25 q=-1.0 size=N/A time=00:00:41.12 bitrate=N/A speed=   1x    frame= 1035 fps= 25 q=-1.0 size=N/A time=00:00:41.64 bitrate=N/A speed=   1x    frame= 1048 fps= 25 q=-1.0 size=N/A time=00:00:42.13 bitrate=N/A speed=   1x    [mov,mp4,m4a,3gp,3g2,mj2 @ 0x48192c0] Auto-inserting h264_mp4toannexb bitstream filter
[segment @ 0x4845d40] Opening '/home/wvtohls/hls/AMC/hls/playlist.m3u8.tmp' for writing
[segment @ 0x4845d40] Opening '/home/wvtohls/hls/AMC/hls/segment7.ts' for writing
frame= 1061 fps= 25 q=-1.0 size=N/A time=00:00:42.64 bitrate=N/A speed=   1x    frame= 1073 fps= 25 q=-1.0 size=N/A time=00:00:43.16 bitrate=N/A speed=   1x    frame= 1086 fps= 25 q=-1.0 size=N/A time=00:00:43.65 bitrate=N/A speed=   1x    frame= 1098 fps= 25 q=-1.0 size=N/A time=00:00:44.16 bitrate=N/A speed=   1x    frame= 1111 fps= 25 q=-1.0 size=N/A time=00:00:44.67 bitrate=N/A speed=   1x    frame= 1124 fps= 25 q=-1.0 size=N/A time=00:00:45.16 bitrate=N/A speed=   1x    frame= 1137 fps= 25 q=-1.0 size=N/A time=00:00:45.68 bitrate=N/A speed=   1x    frame= 1149 fps= 25 q=-1.0 size=N/A time=00:00:46.19 bitrate=N/A speed=   1x    frame= 1162 fps= 25 q=-1.0 size=N/A time=00:00:46.70 bitrate=N/A speed=   1x    frame= 1175 fps= 25 q=-1.0 size=N/A time=00:00:47.20 bitrate=N/A speed=   1x    frame= 1188 fps= 25 q=-1.0 size=N/A time=00:00:47.72 bitrate=N/A speed=   1x    [mov,mp4,m4a,3gp,3g2,mj2 @ 0x48192c0] Auto-inserting h264_mp4toannexb bitstream filter
frame= 1201 fps= 25 q=-1.0 size=N/A time=00:00:48.24 bitrate=N/A speed=   1x    [segment @ 0x4845d40] Opening '/home/wvtohls/hls/AMC/hls/playlist.m3u8.tmp' for writing
[segment @ 0x4845d40] Opening '/home/wvtohls/hls/AMC/hls/segment8.ts' for writing
frame= 1213 fps= 25 q=-1.0 size=N/A time=00:00:48.72 bitrate=N/A speed=   1x    frame= 1226 fps= 25 q=-1.0 size=N/A time=00:00:49.24 bitrate=N/A speed=   1x    frame= 1238 fps= 25 q=-1.0 size=N/A time=00:00:49.76 bitrate=N/A speed=   1x    frame= 1251 fps= 25 q=-1.0 size=N/A time=00:00:50.25 bitrate=N/A speed=   1x    frame= 1263 fps= 25 q=-1.0 size=N/A time=00:00:50.76 bitrate=N/A speed=   1x    frame= 1276 fps= 25 q=-1.0 size=N/A time=00:00:51.27 bitrate=N/A speed=   1x    frame= 1289 fps= 25 q=-1.0 size=N/A time=00:00:51.76 bitrate=N/A speed=   1x    frame= 1302 fps= 25 q=-1.0 size=N/A time=00:00:52.28 bitrate=N/A speed=   1x    frame= 1315 fps= 25 q=-1.0 size=N/A time=00:00:52.80 bitrate=N/A speed=   1x    frame= 1327 fps= 25 q=-1.0 size=N/A time=00:00:53.30 bitrate=N/A speed=   1x    frame= 1340 fps= 25 q=-1.0 size=N/A time=00:00:53.80 bitrate=N/A speed=   1x    [mov,mp4,m4a,3gp,3g2,mj2 @ 0x48192c0] Auto-inserting h264_mp4toannexb bitstream filter
[segment @ 0x4845d40] Opening '/home/wvtohls/hls/AMC/hls/playlist.m3u8.tmp' for writing
[segment @ 0x4845d40] Opening '/home/wvtohls/hls/AMC/hls/segment9.ts' for writing
frame= 1353 fps= 25 q=-1.0 size=N/A time=00:00:54.32 bitrate=N/A speed=   1x    frame= 1365 fps= 25 q=-1.0 size=N/A time=00:00:54.82 bitrate=N/A speed=   1x    frame= 1378 fps= 25 q=-1.0 size=N/A time=00:00:55.32 bitrate=N/A speed=   1x    frame= 1390 fps= 25 q=-1.0 size=N/A time=00:00:55.84 bitrate=N/A speed=   1x    frame= 1403 fps= 25 q=-1.0 size=N/A time=00:00:56.35 bitrate=N/A speed=   1x    frame= 1416 fps= 25 q=-1.0 size=N/A time=00:00:56.84 bitrate=N/A speed=   1x    frame= 1429 fps= 25 q=-1.0 size=N/A time=00:00:57.36 bitrate=N/A speed=   1x    frame= 1441 fps= 25 q=-1.0 size=N/A time=00:00:57.87 bitrate=N/A speed=   1x    frame= 1454 fps= 25 q=-1.0 size=N/A time=00:00:58.38 bitrate=N/A speed=   1x    frame= 1467 fps= 25 q=-1.0 size=N/A time=00:00:58.88 bitrate=N/A speed=   1x    frame= 1480 fps= 25 q=-1.0 size=N/A time=00:00:59.40 bitrate=N/A speed=   1x    frame= 1492 fps= 25 q=-1.0 size=N/A time=00:00:59.92 bitrate=N/A speed=   1x    frame= 1500 fps= 25 q=-1.0 size=N/A time=00:01:00.41 bitrate=N/A speed=   1x    [mov,mp4,m4a,3gp,3g2,mj2 @ 0x48192c0] Auto-inserting h264_mp4toannexb bitstream filter
[segment @ 0x4845d40] Opening '/home/wvtohls/hls/AMC/hls/playlist.m3u8.tmp' for writing
[segment @ 0x4845d40] Opening '/home/wvtohls/hls/AMC/hls/segment10.ts' for writing
frame= 1514 fps= 25 q=-1.0 size=N/A time=00:01:00.92 bitrate=N/A speed=   1x    frame= 1527 fps= 25 q=-1.0 size=N/A time=00:01:01.43 bitrate=N/A speed=   1x    frame= 1539 fps= 25 q=-1.0 size=N/A time=00:01:01.94 bitrate=N/A speed=   1x    frame= 1552 fps= 25 q=-1.0 size=N/A time=00:01:02.43 bitrate=N/A speed=   1x    frame= 1564 fps= 25 q=-1.0 size=N/A time=00:01:02.94 bitrate=N/A speed=   1x    frame= 1577 fps= 25 q=-1.0 size=N/A time=00:01:03.46 bitrate=N/A speed=   1x    frame= 1590 fps= 25 q=-1.0 size=N/A time=00:01:03.95 bitrate=N/A speed=   1x    frame= 1603 fps= 25 q=-1.0 size=N/A time=00:01:04.47 bitrate=N/A speed=   1x    frame= 1616 fps= 25 q=-1.0 size=N/A time=00:01:04.99 bitrate=N/A speed=   1x    frame= 1628 fps= 25 q=-1.0 size=N/A time=00:01:05.48 bitrate=N/A speed=   1x    frame= 1641 fps= 25 q=-1.0 size=N/A time=00:01:06.00 bitrate=N/A speed=   1x    [mov,mp4,m4a,3gp,3g2,mj2 @ 0x48192c0] Auto-inserting h264_mp4toannexb bitstream filter
[segment @ 0x4845d40] Opening '/home/wvtohls/hls/AMC/hls/playlist.m3u8.tmp' for writing
[segment @ 0x4845d40] Opening '/home/wvtohls/hls/AMC/hls/segment11.ts' for writing
frame= 1654 fps= 25 q=-1.0 size=N/A time=00:01:06.51 bitrate=N/A speed=   1x    frame= 1666 fps= 25 q=-1.0 size=N/A time=00:01:07.00 bitrate=N/A speed=   1x    frame= 1679 fps= 25 q=-1.0 size=N/A time=00:01:07.52 bitrate=N/A speed=   1x    frame= 1692 fps= 25 q=-1.0 size=N/A time=00:01:08.03 bitrate=N/A speed=   1x    frame= 1704 fps= 25 q=-1.0 size=N/A time=00:01:08.54 bitrate=N/A speed=   1x    frame= 1717 fps= 25 q=-1.0 size=N/A time=00:01:09.03 bitrate=N/A speed=   1x    frame= 1730 fps= 25 q=-1.0 size=N/A time=00:01:09.55 bitrate=N/A speed=   1x    frame= 1742 fps= 25 q=-1.0 size=N/A time=00:01:10.05 bitrate=N/A speed=   1x    frame= 1755 fps= 25 q=-1.0 size=N/A time=00:01:10.57 bitrate=N/A speed=   1x    frame= 1768 fps= 25 q=-1.0 size=N/A time=00:01:11.08 bitrate=N/A speed=   1x    frame= 1781 fps= 25 q=-1.0 size=N/A time=00:01:11.59 bitrate=N/A speed=   1x    frame= 1793 fps= 25 q=-1.0 size=N/A time=00:01:12.10 bitrate=N/A speed=   1x    [concat @ 0x4406cc0] Impossible to open '/home/wvtohls/video/AMC/final/104253480000.mp4'
/home/wvtohls/video/AMC/playlist.txt: No such file or directory
[segment @ 0x4845d40] Opening '/home/wvtohls/hls/AMC/hls/playlist.m3u8.tmp' for writing
[segment @ 0x4845d40] Failed to open segment list '/home/wvtohls/hls/AMC/hls/playlist.m3u8'
Error writing trailer of /home/wvtohls/hls/AMC/hls/segment%d.ts: No such file or directory
frame= 1800 fps= 25 q=-1.0 Lsize=N/A time=00:01:12.36 bitrate=N/A speed=   1x    
video:52704kB audio:1102kB subtitle:0kB other streams:0kB global headers:0kB muxing overhead: unknown
